 <!DOCTYPE svg PUBLIC "-//W3C//DTD SVG 1.1//EN" "http://www.w3.org/Graphics/SVG/1.1/DTD/svg11.dtd">
<svg xmlns="http://www.w3.org/2000/svg" width="865.76" height="682.89" viewBox="0 0 865.76 682.89">
<defs>
<style xmlns="http://www.w3.org/1999/xhtml">*, ::after, ::before { box-sizing: border-box; }
img, svg { vertical-align: middle; }
</style>
<style xmlns="http://www.w3.org/1999/xhtml">*, body, html { }
img, svg { max-width: 100%; }
</style>
</defs>
<path d="M685.92,635.13c-.55,5.78-12,6-18.61,5.59a20.93,20.93,0,0,1-6.88-1.65c-3.43-1.41-5,.13-5,.13-8.79,4.45-17.51,0-17.51,0-13.93-7.41-13.16-14.08-13.16-14.08,2.71-12.6,17.41-7.78,17.41-7.78,7.74,1.85,7.69-8.18,7.69-8.18-.3-3.9.23-6.19,1-7.52h0c1.42-2.34,2.55-1.34,2.55-1.34s25.94,21.12,26.31,7.78c1.19.73,4,3.51,4.59,5.67C686.63,621.38,685.92,635.13,685.92,635.13Z" fill="#1bbb9b" data-primary="true"/>
<path d="M685.92,635.13c-.54,5.78-12,6-18.61,5.59a20.93,20.93,0,0,1-6.88-1.65c-3.43-1.41-5,.13-5,.13-8.79,4.45-17.51,0-17.51,0-13.93-7.41-13.16-14.08-13.16-14.08,1.73-8,8.36-9,12.92-8.62l.74.08a21,21,0,0,1,3.75.76,5.55,5.55,0,0,0,4.7-.64,4.94,4.94,0,0,0,.64-.56c2.37-2.4,2.35-7,2.35-7-.3-3.9.23-6.19,1-7.52h0c1.42-2.34,2.55-1.34,2.55-1.34s25.94,21.12,26.31,7.78c1.19.73,4,3.52,4.59,5.67C686.63,621.38,685.92,635.13,685.92,635.13Z" opacity="0.2"/>
<path d="M685.42,642.82a4.6,4.6,0,0,1-4.38,2.62L627.11,644c-4.64-.37-3.48-11.86-3.48-11.86,0-9.26,1.16-7,1.16-7S624,631.79,638,639.2c0,0,8.72,4.45,17.51,0,0,0,1.54-1.54,5-.13a20.93,20.93,0,0,0,6.88,1.65c6.61.38,18.06.19,18.61-5.59C686.61,638.76,686.15,641.22,685.42,642.82Z" fill="#3e3c3c" data-secondary="true"/>
<path d="M685.42,642.82a4.6,4.6,0,0,1-4.38,2.62L627.11,644c-4.64-.37-3.48-11.86-3.48-11.86,0-9.26,1.16-7,1.16-7S624,631.79,638,639.2c0,0,8.72,4.45,17.51,0,0,0,1.54-1.54,5-.13a20.93,20.93,0,0,0,6.88,1.65c6.61.38,18.06.19,18.61-5.59C686.61,638.76,686.15,641.22,685.42,642.82Z" opacity="0.2"/>
<path d="M644.49,626.72a.37.37,0,0,1-.35.26l-.12,0c-5.28-1.79-6.21-7.42-6.31-10.46l.74.08c.11,2.88,1,8,5.81,9.67A.38.38,0,0,1,644.49,626.72Z" fill="#fff"/>
<path d="M654.17,625a.36.36,0,0,1-.35.26l-.11,0c-4.76-1.52-6.31-5.89-6.81-8.54a4.94,4.94,0,0,0,.64-.56c.39,2.42,1.74,6.9,6.39,8.4A.36.36,0,0,1,654.17,625Z" fill="#fff"/>
<path d="M683.48,612.15c-8.15,13.34-32.56-10.51-32.56-10.51h0c1.42-2.34,2.55-1.34,2.55-1.34s25.2,21.12,26.31,7.78A11.84,11.84,0,0,1,683.48,612.15Z" opacity="0.2"/>
<path d="M692,494.54c-2.86,0-6.33.19-10,.53-11.87,1.14-25.57,3.7-25.57,3.7-.8.1-1.59.2-2.37.28h0c-15,1.68-26.43.86-34.73-.8-9-1.79-14.37-4.56-16.94-6.18a2.75,2.75,0,0,1-1.09-3.25c4.38-12.11,9.57-40.81,9.57-40.81,2.22-29.65,10-38.57,10-38.57a60.38,60.38,0,0,1,0-12.53l57.06-.41V413c6.12,14.7,14.48,65.54,16.55,78.59A2.5,2.5,0,0,1,692,494.54Z" fill="#1bbb9b" data-primary="true"/>
<path d="M627.35,405a4.06,4.06,0,0,0,0,5.49,39.92,39.92,0,0,0,11.88,3.18s.53,6.16-10.59,1.72c0,0-8.15-7-8.15,4.07,0,0,1.85,19.64-9.63,49.29,0,0-5.93,12.59-2.6,15.56,0,0,8.9,6.67,27.79,5.56,0,0-2.59,4.44-14.45,5.18,0,0,8.58,4.64,32.45,4-31.35,3.5-46.72-3.85-51.67-7a2.75,2.75,0,0,1-1.09-3.25c4.38-12.1,9.57-40.81,9.57-40.81,2.22-29.65,10-38.57,10-38.57a60.38,60.38,0,0,1,0-12.53l57.06-.41S669.4,418,627.35,405Z" opacity="0.2"/>
<polygon points="580.84 328.32 595.06 347.12 614.93 341.4 609.09 324.31 601.13 315.09 580.84 328.32" fill="#1bbb9b" data-primary="true"/>
<polygon points="580.84 328.32 595.06 347.12 614.93 341.4 609.09 324.31 601.13 315.09 580.84 328.32" fill="#fff" opacity="0.4"/>
<polygon points="584.92 329.06 595.95 343.58 611.12 336.58 607.02 327.58 600.54 319.46 584.92 329.06" fill="#fff"/>
<polygon points="580.84 328.32 580.84 332.05 594.45 350.46 595.06 347.12 580.84 328.32" fill="#1bbb9b" data-primary="true"/>
<polygon points="580.84 328.32 580.84 332.05 594.45 350.46 595.06 347.12 580.84 328.32" fill="#fff" opacity="0.5"/>
<path d="M125.31,297.43a18.64,18.64,0,0,0-9.59,6.2,13.17,13.17,0,0,1-4.16,3.44c-5.49,3-17.15,10.79-16.86,23.84,0,0-4.4,30.44,3.93,52.55a2.4,2.4,0,0,0,3.7,1.05,46.26,46.26,0,0,1,14.6-7.65v28.71a1.59,1.59,0,0,0,1.67,1.59c10.76-.54,70-3.76,75-8.81l-1.85-17.41,19.08-28.6s-16.49-21.8-21.31-38.1c0,0-7.41-17.79-30.38-19.27C159.17,295,145.54,292.1,125.31,297.43Z" fill="#1bbb9b" data-primary="true"/>
<path d="M121,303.12a33.52,33.52,0,0,0,16.24,9.64l-.42.34c.19-3.71,1.55-7.57,4.49-10a15,15,0,0,0-3.8,10.42A28.09,28.09,0,0,1,121,303.12Z" opacity="0.2"/>
<path d="M153.69,306.83c2.41.14,5.3.16,7.06-1.72l.05.53a10.21,10.21,0,0,1-1.71-1.77,8.89,8.89,0,0,1-1.89-4.46,6.89,6.89,0,0,1,.16-2.4c0,.21,0,.69,0,.89a9.2,9.2,0,0,0,1,3.6,12,12,0,0,0,3.15,3.81l-.24.27c-1.92,2.06-5.11,2-7.61,1.25Z" opacity="0.2"/>
<polygon points="196.71 376.77 202.09 347.19 221.05 341.29 214.51 376.77 196.71 376.77" fill="#1bbb9b" data-primary="true"/>
<polygon points="196.71 376.77 202.09 347.19 221.05 341.29 214.51 376.77 196.71 376.77" fill="#fff" opacity="0.4"/>
<polygon points="192.2 376.77 198.82 343.88 216.23 338.7 221.05 341.29 202.09 347.19 196.71 376.77 192.2 376.77" fill="#1bbb9b" data-primary="true"/>
<polygon points="192.2 376.77 198.82 343.88 216.23 338.7 221.05 341.29 202.09 347.19 196.71 376.77 192.2 376.77" fill="#fff" opacity="0.5"/>
<path d="M192.64,389l.44,4.1a26.1,26.1,0,0,0,15.24,1.22,16.09,16.09,0,0,0,10-7,10.94,10.94,0,0,0,.3-11.79l-26.77,6.1Z" fill="#f7a48b"/>
<path d="M181.4,329.8a45.14,45.14,0,0,0,.47,5.05q1,7.56,2.19,15.08a189.77,189.77,0,0,0,4,19.89A141,141,0,0,1,183.69,350c-.79-5-1.48-10.05-2-15.11a37.4,37.4,0,0,1-.3-5.07Z" opacity="0.2"/>
<path d="M189.18,335.36c.82,8,1.39,22-2.55,29.05A16.14,16.14,0,0,0,187.9,361a51.92,51.92,0,0,0,1.41-10.9c.23-4.9.12-9.81-.13-14.71Z" opacity="0.2"/>
<path d="M198.45,548.77V617c-4.82-1.11-14.08,2.6-14.08,2.6a52.8,52.8,0,0,0-21.12,2.59c-2.94-3.82-12.17-3.91-15.86-3.79h-.2c-.85,0-1.36.07-1.36.07-4,.81-7.85,1.48-10.88,2a54.38,54.38,0,0,0-11.66,3.29c-4.45,1.8-4.92,1.28-4.92,1.28-6.7-6.8.51-76.86.51-76.86a13.23,13.23,0,0,1-1.2-2.68c-2.91-8.76-.38-24.45-.38-24.45l3.17-113.93c3-.08,5.89-.18,8.76-.31h.1a463.5,463.5,0,0,0,60.27-6.66c3,28.06,6.62,79.77,6.62,79.77l1.89,58.51h0Z" fill="#3e3c3c" data-secondary="true"/>
<path d="M126,488.42a21.47,21.47,0,0,1-1.25,14.05s-3.44,5.52-1.55,9a7.73,7.73,0,0,1,.94,4.95,13.07,13.07,0,0,1-3.1,6.43,5.12,5.12,0,0,0-.72,4.74,6.12,6.12,0,0,0,1.13,2.1c.89,1.15,2.5,5.09-3.73,15.76-2.91-8.76-.38-24.45-.38-24.45l3.17-113.93,8.76-.31h.1s-8.33,30.5-6.47,61.62C122.86,468.38,124.25,482.89,126,488.42Z" opacity="0.2"/>
<path d="M198.45,548.77V617c-4.82-1.11-14.08,2.6-14.08,2.6a52.8,52.8,0,0,0-21.12,2.59c-2.94-3.82-12.17-3.91-15.86-3.79,1.07-.12,6.18-1.6,5.85-19.18,0,0,3.71-46.69,2.22-63,0,0-.86-3.13.17-10.09a37.16,37.16,0,0,1,2.22-8.09c.76-2,1.64-6.64,1-17.76L158.47,437s-1.52-12,7-13.82l-2.22,165.63s-4.41,31,4.46,29.57l18.88-3.63s9.63,1.48,8.52-10c0,0-1.78-47.86,3-66.35Z" opacity="0.2"/>
<path d="M163.25,636.61l-27.8-.74C118.41,634,118.37,625,118.37,625c1,.11,3.26-.65,5.36-1.5a53.94,53.94,0,0,1,11.08-3.16l11-1.88,1.56-.08c13-.45,15.86,3.79,15.86,3.79a30.31,30.31,0,0,1,2.73,5.31C169,635.56,163.25,636.61,163.25,636.61Z" fill="#1bbb9b" data-primary="true"/>
<path d="M163.25,636.61l-27.8-.74C118.41,634,118.37,625,118.37,625s7.64,11,22.48,7a5.59,5.59,0,0,0,1-.39l.44-.21a73.48,73.48,0,0,0,7.15-4,14.82,14.82,0,0,1,16.51.11C169,635.56,163.25,636.61,163.25,636.61Z" opacity="0.2"/>
<path d="M213.94,630.24a4.15,4.15,0,0,1-4.14,4.52H185.48c-11.89,0-16.66-5.74-18.54-9.7h0a13.05,13.05,0,0,1-1.19-3.69c7.7-3.74,18.62-1.8,18.62-1.8,9.85-3.9,14.08-2.6,14.08-2.6,8.67.52,12.59,4.45,14.31,8.48A16.1,16.1,0,0,1,213.94,630.24Z" fill="#1bbb9b" data-primary="true"/>
<path d="M213.94,630.24a4.15,4.15,0,0,1-4.14,4.52H185.48c-11.89,0-16.66-5.74-18.54-9.7.24.21,10.69,9.13,28,2.41,10.28-4,15.35-3.28,17.78-2A16.1,16.1,0,0,1,213.94,630.24Z" opacity="0.2"/>
<path d="M630.89,298.7v10.85h14.79l3.83-20.47s-2.31,2.38-4.55,1.36Z" fill="#f9b499"/>
<path d="M630.89,298.7v10.85h9.72s4-7.43,2.88-15.82C643.49,293.73,638.33,299.83,630.89,298.7Z" fill="#f7a48b"/>
<path d="M697.56,366.12a10.34,10.34,0,0,1-.36,1.6c-2.63,8.88-15.2,12.85-15.2,12.85-1.48,14.82-4.07,15.93-4.07,15.93-4.82,11.12-44.1,8.15-44.1,8.15-11.86-2.22-16.3-13-16.3-13-11.34-1.79-15.47-11-16.65-14.56a6.56,6.56,0,0,1-.32-2.53l.11-1.73,1.67-25.64c1.11-29.64,20-31.5,20-31.5,1.49-6.3,8.55-6.17,8.55-6.17h14.79l34.59,9.9a12.1,12.1,0,0,1,8.4,8.5C694.23,340.92,697.56,366.12,697.56,366.12Z" fill="#1bbb9b" data-primary="true"/>
<path d="M677.93,396.5c-4.82,11.12-44.1,8.15-44.1,8.15-11.86-2.22-16.3-13-16.3-13-11.34-1.79-15.47-11-16.65-14.56a6.56,6.56,0,0,1-.32-2.53l.11-1.73c1.33,2.79,13.06,26.5,17.6,6.6l3-38.06c-.15,2.75-2.66,54.47,8.52,58.43C629.75,399.83,652,407.62,677.93,396.5Z" opacity="0.2"/>
<path d="M697.2,367.72c-2.63,8.88-15.2,12.85-15.2,12.85s3.34-32.61,1.48-45.21c0,0,4.71-1.36,5.69,21.92A12.48,12.48,0,0,0,697.2,367.72Z" opacity="0.2"/>
<path d="M682,495.07v44.46c-13.71,7.41-28.9.16-28.9.16V518.31a1.89,1.89,0,0,0-1.89-1.89H651a1.89,1.89,0,0,0-1.66,1.88V543c-3.78,6-30,0-30,0V498.25c8.3,1.66,19.68,2.48,34.73.8h0c.78-.08,1.57-.18,2.37-.28C656.43,498.77,670.13,496.21,682,495.07Z" fill="#3e3c3c" data-secondary="true"/>
<path d="M682,495.07v44.46c-13.71,7.41-28.9.16-28.9.16V518.31a1.89,1.89,0,0,0-1.89-1.89H651a1.89,1.89,0,0,0-1.66,1.88v5.58c-5.63-15.28-30-25.64-30-25.64,8.3,1.66,19.68,2.48,34.73.8h0c.78-.08,1.57-.18,2.37-.28C656.43,498.77,670.13,496.21,682,495.07Z" opacity="0.2"/>
<path d="M649.32,543l-6.6,69.52c-1.8,7.47-13.63.08-20.68-5.12h0c-3.09-2.28-5.25-4.14-5.25-4.14L619.32,543c11.32,2.37,18.38,2.88,22.77,2.63C648.55,545.23,649.27,543.21,649.32,543Z" fill="#ccc"/>
<path d="M679.78,607c1.11,15.56-26.31-6.67-26.31-6.67l-.37-60.61a35.08,35.08,0,0,0,23.13,2.08,24.75,24.75,0,0,0,5.77-2.24h0Z" fill="#ccc"/>
<path d="M679.78,607c1.11,15.56-26.31-6.67-26.31-6.67,27.79,4.44,22.76-58.53,22.76-58.53a61.44,61.44,0,0,0,5.77-2.24h0Z" opacity="0.2"/>
<path d="M646.8,638.46c-.53,5.79-11.5,6-17.83,5.59a19.59,19.59,0,0,1-6.59-1.64c-3.28-1.42-4.75.13-4.75.13-8.42,4.45-16.78,0-16.78,0-13.34-7.41-12.6-14.08-12.6-14.08,1.65-8,7.91-9,12.27-8.63l.72.07a19.4,19.4,0,0,1,3.69.78,5.13,5.13,0,0,0,4.47-.63,5.49,5.49,0,0,0,.63-.56c2.28-2.4,2.26-7,2.26-7-.29-3.91.22-6.19,1-7.52h0a3.16,3.16,0,0,1,3.51-1.71s23.34,20,25.93,9.27c1.14.73,2,2.4,2.59,4.56C647.47,624.72,646.8,638.46,646.8,638.46Z" fill="#1bbb9b" data-primary="true"/>
<path d="M646.32,646.15a4.42,4.42,0,0,1-4.2,2.63l-51.64-1.42c-4.45-.38-3.34-11.86-3.34-11.86,0-9.27,1.11-7,1.11-7s-.74,6.67,12.6,14.08c0,0,8.36,4.44,16.78,0,0,0,1.47-1.55,4.75-.13a19.59,19.59,0,0,0,6.59,1.64c6.33.39,17.3.2,17.83-5.59C647.46,642.09,647,644.55,646.32,646.15Z" fill="#3e3c3c" data-secondary="true"/>
<path d="M607.13,630.05a.36.36,0,0,1-.35.26l-.11,0c-5.61-1.79-6.24-7.41-6.15-10.46l.72.07c-.11,2.86.46,8,5.66,9.69A.36.36,0,0,1,607.13,630.05Z" fill="#fff"/>
<path d="M616.39,628.37a.34.34,0,0,1-.48.19,10.9,10.9,0,0,1-6.51-8.51,5.49,5.49,0,0,0,.63-.56,10.21,10.21,0,0,0,6.17,8.39A.37.37,0,0,1,616.39,628.37Z" fill="#fff"/>
<path d="M645.31,617.09c-8.89,14.93-32-12.11-32-12.11h0a3.16,3.16,0,0,1,3.51-1.71s23.34,20,25.93,9.26C643.87,613.26,644.7,614.93,645.31,617.09Z" opacity="0.2"/>
<path d="M649.32,543l-6.6,69.52c-1.8,7.47-13.63.08-20.68-5.12.17-.07,14.76,1.79,18.09-25.26.14-1.16,2-36.47,2-36.47v-.06C648.55,545.23,649.27,543.21,649.32,543Z" opacity="0.2"/>
<path d="M691.53,375.45s1.22,25.28-13.6,33.91V396.5s3-1.85,4.07-15.93C682,380.57,685.87,380,691.53,375.45Z" fill="#f9b499"/>
<path d="M619.88,395.64s-9.39,18.65-22.36,3.82c0,0-15.56-12.59-3.34-47,0,0,2.25-20.66,9.28-14.78,0,0-2.79,25.34-2.58,39.49a21.71,21.71,0,0,0,16.65,14.56A18.81,18.81,0,0,0,619.88,395.64Z" fill="#f9b499"/>
<path d="M532.65,34.11H264.06a8.55,8.55,0,0,0-8.55,8.55v485a8.55,8.55,0,0,0,8.55,8.55H532.65a8.55,8.55,0,0,0,8.55-8.55v-485A8.55,8.55,0,0,0,532.65,34.11ZM536,491.36a24.46,24.46,0,0,1-24.46,24.45H284.78a24.45,24.45,0,0,1-24.45-24.45V71.17a24.46,24.46,0,0,1,24.45-24.46h65.11L357,58.2h84l9-11.49h61.49A24.46,24.46,0,0,1,536,71.17Z" fill="#3e3c3c" data-secondary="true"/>
<path d="M511.59,46.7h-61.5l-9,11.49h-84L349.92,46.7h-65.1a24.46,24.46,0,0,0-24.46,24.46V491.35a24.46,24.46,0,0,0,24.46,24.46H511.59A24.46,24.46,0,0,0,536,491.35V71.16A24.46,24.46,0,0,0,511.59,46.7Zm17.19,430.08a23.3,23.3,0,0,1-23.3,23.29H289.38a23.3,23.3,0,0,1-23.31-23.29V76.67a23.3,23.3,0,0,1,23.31-23.29h62l6.81,9.53h80.08l8.57-9.53h58.6a23.3,23.3,0,0,1,23.3,23.29Z" fill="#3e3c3c" data-secondary="true"/>
<path d="M511.59,46.7h-61.5l-9,11.49h-84L349.92,46.7h-65.1a24.46,24.46,0,0,0-24.46,24.46V491.35a24.46,24.46,0,0,0,24.46,24.46H511.59A24.46,24.46,0,0,0,536,491.35V71.16A24.46,24.46,0,0,0,511.59,46.7Zm17.19,430.08a23.3,23.3,0,0,1-23.3,23.29H289.38a23.3,23.3,0,0,1-23.31-23.29V76.67a23.3,23.3,0,0,1,23.31-23.29h62l6.81,9.53h80.08l8.57-9.53h58.6a23.3,23.3,0,0,1,23.3,23.29Z" opacity="0.2"/>
<path d="M505.48,53.38h-58.6l-8.57,9.53H358.23l-6.81-9.53h-62a23.3,23.3,0,0,0-23.31,23.29V476.78a23.3,23.3,0,0,0,23.31,23.29h216.1a23.3,23.3,0,0,0,23.3-23.29V76.67A23.3,23.3,0,0,0,505.48,53.38Z" fill="#1bbb9b" opacity="0.2" data-primary="true"/>
<path d="M518.1,342.94h46.2a9.33,9.33,0,0,1,9.32,9.33v20.55a9.33,9.33,0,0,1-9.32,9.33h-3.54a17.7,17.7,0,0,0,4.61,8.25,26.25,26.25,0,0,1-14.48-8.25H518.1a9.33,9.33,0,0,1-9.33-9.33V352.27A9.33,9.33,0,0,1,518.1,342.94Z" fill="#1bbb9b" data-primary="true"/>
<rect x="518.8" y="350.9" width="43.33" height="3.83" transform="translate(1080.92 705.64) rotate(-180)" fill="#fff"/>
<rect x="518.5" y="366.82" width="43.33" height="3.83" transform="translate(1080.33 737.47) rotate(-180)" fill="#fff"/>
<rect x="540.31" y="358.86" width="21.81" height="3.83" transform="translate(1102.43 721.55) rotate(-180)" fill="#fff"/>
<rect x="518.8" y="358.86" width="19.75" height="3.83" transform="translate(1057.34 721.55) rotate(-180)" fill="#fff"/>
<path d="M761.2,248.56H706.55a11,11,0,0,0-11,11v24.32a11,11,0,0,0,11,11h4.18a21.06,21.06,0,0,1-5.44,9.77,31,31,0,0,0,17.13-9.77H761.2a11,11,0,0,0,11-11V259.59A11,11,0,0,0,761.2,248.56Z" fill="#1bbb9b" data-primary="true"/>
<rect x="709.12" y="257.98" width="51.25" height="4.53" fill="#fff"/>
<rect x="709.47" y="276.8" width="51.25" height="4.53" fill="#fff"/>
<rect x="709.12" y="267.39" width="25.8" height="4.53" fill="#fff"/>
<rect x="737.01" y="267.39" width="23.36" height="4.53" fill="#fff"/>
<path d="M164.87,139.17h91.61A18.48,18.48,0,0,1,275,157.65v40.77a18.48,18.48,0,0,1-18.48,18.48h-7c2,9.62,9.13,16.37,9.13,16.37-13.25-2.32-22.86-10.08-28.71-16.37h-65a18.48,18.48,0,0,1-18.48-18.48V157.65A18.48,18.48,0,0,1,164.87,139.17Z" fill="#3e3c3c" data-secondary="true"/>
<path d="M164.87,139.17h91.61A18.48,18.48,0,0,1,275,157.65v40.77a18.48,18.48,0,0,1-18.48,18.48h-7c2,9.62,9.13,16.37,9.13,16.37-13.25-2.32-22.86-10.08-28.71-16.37h-65a18.48,18.48,0,0,1-18.48-18.48V157.65A18.48,18.48,0,0,1,164.87,139.17Z" opacity="0.3"/>
<ellipse cx="635.51" cy="271.02" rx="28.06" ry="17.6" transform="translate(263.63 853.28) rotate(-80.53)" fill="#f9b499"/>
<path d="M679.54,321.51c-1.46,2.94-5,6.28-13.84,6.07a8,8,0,0,0-5,1.52,13.29,13.29,0,0,1-4.21,2c-4.38,1.17-12.53,2.32-16.27-3.66,0,0-5.17-8.2,3.49-20.71a63,63,0,0,0,3.48-16.19V280.12s-4.45-.34-1.48-7.75a7.64,7.64,0,0,0-2-9.2s-10.08-9.69-11.45-18.4c0,0-8,3.21-12.63,17.26,0,0-4.31-19.3,19.78-20.79,0,0,30-1.85,28.53,14.83,0,0,10.83,3.51,7.52,16.78a19.25,19.25,0,0,1-3.6,7.1c-1.35,1.73-2.62,4.6.16,7.61a19.51,19.51,0,0,1,4.07,21.32s-3.7,6.47,4.45,8.32A9.29,9.29,0,0,1,679.54,321.51Z" fill="#3e3c3c" data-secondary="true"/>
<path d="M679.54,321.51c-1.46,2.94-5,6.28-13.84,6.07a8,8,0,0,0-5,1.52,13.29,13.29,0,0,1-4.21,2c-4.38,1.17-12.53,2.32-16.27-3.66,0,0-5.17-8.2,3.49-20.71a63,63,0,0,0,3.48-16.19V280.12s-4.45-.34-1.48-7.75a7.64,7.64,0,0,0-2-9.2s-10.08-9.69-11.45-18.4c0,0,10.85-7.23,23.82,8.33a26.44,26.44,0,0,0,0-5.71s6.3,1.64,5.56,9.05a9,9,0,0,1,6.67,6.3s-3.7-.38-1.48,2.22c0,0,10.74,4.09,1.48,10.38,0,0-8.29,5.42-4.17,12a8.1,8.1,0,0,0,2.23,2.29c2.79,2,10.9,8.85,6.82,19.88C673.17,309.55,668.92,318,679.54,321.51Z" opacity="0.2"/>
<ellipse cx="647.17" cy="285.34" rx="5.56" ry="4.08" transform="translate(127.96 765.62) rotate(-66.56)" fill="#f9b499"/>
<ellipse cx="143.75" cy="256.12" rx="20.24" ry="30.75" transform="translate(-21.55 13.35) rotate(-4.95)" fill="#f9b499"/>
<path d="M123.23,274.22l2.22,24.83h11.29s4.27-1.11,8.35,3l5.93,4.82s.74-2.59-2.23-10a40,40,0,0,1-2.39-10.06s-11.85,1.43-19-14.26C127.4,272.5,126.56,273.85,123.23,274.22Z" fill="#f9b499"/>
<path d="M133.37,281.33s-2.36,11.37,16,16.95c0,0-2.74-6.4-2.95-11.52C146.4,286.76,139.44,287.7,133.37,281.33Z" fill="#f7a48b"/>
<path d="M128.23,262.36s-2-7.78,2-10.37l7.78-4.82s6.67,4.42,11.3-1.68a14.65,14.65,0,0,0,12.56-1.15s-5.9-19.81-20.81-18.86c0,0-17.5.3-17.87,30.64l1,6.24A6.35,6.35,0,0,0,128.23,262.36Z" fill="#f7a48b"/>
<path d="M123.7,279.55s-33.08-16.44-14.55-35.34c0,0-7.78-6.3,2.59-7,0,0-2.59-11.12,4.45-10.75,0,0-1.11,5.83,1.11,6.25,0,0,20.38-25.15,27.79-8.47,0,0,21.49-.74,18.16,17.79,0,0-5.56-3.71-7,.37,0,0-2.22,3.59-6.86.13,0,0-4.4,4.74-8,3.6a8.22,8.22,0,0,1-2.34-2.63,1.35,1.35,0,0,0-1.75-.57c-3.84,1.78-15.35,7.69-12.2,13.23l3.21,6.24a4.38,4.38,0,0,1-4,0l-1,11.86Z" fill="#3e3c3c" data-secondary="true"/>
<circle cx="123.23" cy="268.29" r="5.93" fill="#f9b499"/>
<path d="M211.42,375s3.5.09,3.78-2l2.19-11.87s3.19-2.89,2.87,3.26a49.58,49.58,0,0,0-.68,7.33s0,8.46-9.65,8.83l-7.25.13v-5.62Z" fill="#f9b499"/>
<path d="M211.42,375c0,3-5.56,3-5.56,3-2.23.74-1.11,1.49-1.11,1.49,6.3-1.12,5.18,1.11,5.18,1.11.37,1.85-4.44,2.22-4.44,2.22a5.18,5.18,0,0,0-2.1.1.5.5,0,0,0,.16,1,20,20,0,0,1,3.5.18,1.09,1.09,0,0,1,.25,2.07c-7,3-16.26,3-16.26,3l-31.5,13.71c-22.6,9.63-24.83,6.3-24.83,6.3-13.34-4.45-29.2-26.83-29.2-26.83a48.87,48.87,0,0,1,25.13-8c4.07,5.56,11.48,6.67,11.48,6.67,11.49-4.08,45.95-11.12,45.95-11.12,3.23-.5,6.46-3.33,8.24-5.14a.9.9,0,0,1,1.54.7,13.8,13.8,0,0,1-1.26,4.44,1.1,1.1,0,0,0,.12.8h0c.29.42,1,.29,1.78,0a8.21,8.21,0,0,0,3-2.14,11.77,11.77,0,0,1,3.79-3.05,1.81,1.81,0,0,1,2.15.53,1.83,1.83,0,0,1,.23,1.95c-1.16,2.45-4.44,5.26-4.44,5.26C212.16,370.93,211.42,375,211.42,375Z" fill="#f9b499"/>
<path d="M207.47,366h0l-3.84,3.49c-4.91,3.94-6.6,1.73-6.92,1.17.29.42,1,.29,1.78,0a8.21,8.21,0,0,0,3-2.14,11.77,11.77,0,0,1,3.79-3.05A1.81,1.81,0,0,1,207.47,366Z" fill="#f7a48b"/>
<path d="M105.51,382.27s18.66,11.92,37.27-1.56a16.91,16.91,0,0,1-12.14-6.44S119.74,373.33,105.51,382.27Z" fill="#f7a48b"/>
<path d="M384.49,476.93a3.86,3.86,0,1,1-3.86-3.85h0A3.87,3.87,0,0,1,384.49,476.93Z" fill="#455a64"/>
<path d="M399.14,476.93a3.86,3.86,0,1,1-3.85-3.85h0A3.87,3.87,0,0,1,399.14,476.93Z" fill="#455a64"/>
<path d="M413.8,476.93a3.86,3.86,0,1,1-3.86-3.85h0A3.88,3.88,0,0,1,413.8,476.93Z" fill="#455a64"/>
<polygon points="458.69 163.98 326.38 163.36 326.39 159.29 458.69 159.91 458.69 163.98" fill="#3e3c3c" data-secondary="true"/>
<polygon points="458.69 177.36 326.38 176.74 326.39 172.67 458.69 173.28 458.69 177.36" fill="#3e3c3c" data-secondary="true"/>
<rect x="430.46" y="162.05" width="4.07" height="52.35" transform="translate(242.16 619.78) rotate(-89.72)" fill="#3e3c3c" data-secondary="true"/>
<path d="M487.61,242.26V283a13.33,13.33,0,0,1-13.31,13.32H328.48A13.32,13.32,0,0,1,315.16,283V248.58L297,229.51,474.23,229a13.3,13.3,0,0,1,13.38,13.23Z" fill="#1bbb9b" data-primary="true"/>
<polygon points="336.66 253.59 468.97 252.97 468.95 248.9 336.64 249.52 336.66 253.59" fill="#fff"/>
<polygon points="336.66 266.97 468.97 266.35 468.95 262.3 336.64 262.9 336.66 266.97" fill="#fff"/>
<rect x="336.62" y="275.82" width="52.35" height="4.07" transform="translate(-1.35 1.78) rotate(-0.28)" fill="#fff"/>
<path d="M408.24,86.49a7.1,7.1,0,0,0,4.25-6.62,6.71,6.71,0,0,0-13.4-.69q0,.34,0,.69a7.1,7.1,0,0,0,4.26,6.67C393,88.1,393.5,99.32,393.5,99.32l24.4.1S418.47,88,408.24,86.49Z" fill="#1bbb9b" data-primary="true"/>
<path d="M408.24,86.49a7.1,7.1,0,0,0,4.25-6.62,6.71,6.71,0,0,0-13.4-.69q0,.34,0,.69a7.1,7.1,0,0,0,4.26,6.67C393,88.1,393.5,99.32,393.5,99.32l24.4.1S418.47,88,408.24,86.49Z" fill="#fff" opacity="0.5" style="isolation:isolate"/>
<path d="M394.84,86.49a7.2,7.2,0,0,0,4.27-6.62,6.73,6.73,0,0,0-13.42-1,8,8,0,0,0,0,1A7.09,7.09,0,0,0,390,86.54c-10.32,1.56-9.86,12.78-9.86,12.78l24.41.1S405.07,88,394.84,86.49Z" fill="#1bbb9b" data-primary="true"/>
<rect x="395.27" y="75.5" width="8.14" height="65.6" transform="matrix(0, -1, 1, 0, 289.23, 507.14)" fill="#1bbb9b" data-primary="true"/>
<rect x="395.27" y="75.5" width="8.14" height="65.6" transform="matrix(0, -1, 1, 0, 289.23, 507.14)" fill="#fff" opacity="0.3" style="isolation:isolate"/>
<polygon points="464.62 345.66 332.31 345.06 332.32 340.99 464.64 341.61 464.62 345.66" fill="#3e3c3c" data-secondary="true"/>
<rect x="435.75" y="329.74" width="4.07" height="53.69" transform="translate(79.06 792.63) rotate(-89.72)" fill="#3e3c3c" data-secondary="true"/>
<path d="M483,407.53V435.4a7.08,7.08,0,0,1-7.08,7.08H320A7.08,7.08,0,0,1,313,435.4V420.16L295.07,401l180.8-.57A7.08,7.08,0,0,1,483,407.53Z" fill="#1bbb9b" data-primary="true"/>
<polygon points="329.14 418.25 461.45 417.65 461.43 413.58 329.12 414.2 329.14 418.25" fill="#fff"/>
<polygon points="329.14 431.35 461.45 430.73 461.43 426.68 329.12 427.28 329.14 431.35" fill="#fff"/>
<path d="M467.33,207.5H320.85a13.73,13.73,0,0,1-13.71-13.71V152.44a13.73,13.73,0,0,1,13.71-13.71H499.52L481,159.13v34.66A13.73,13.73,0,0,1,467.33,207.5Zm-146.48-68a13,13,0,0,0-13,13v41.35a13,13,0,0,0,13,13H467.33a13,13,0,0,0,13-13V158.84l17.55-19.37Z" fill="#3e3c3c" data-secondary="true"/>
<path d="M474.26,370.92h0l-156.33-.17a7.74,7.74,0,0,1-7.73-7.74V335a7.73,7.73,0,0,1,7.74-7.74h0l181.64.35L481,347.72v16.44a6.78,6.78,0,0,1-6.76,6.76ZM317.93,328a7,7,0,0,0-7,7v28a7,7,0,0,0,7,7l156.33.17h0a6,6,0,0,0,6-6V347.43l.1-.11,17.52-19L317.94,328Z" fill="#3e3c3c" data-secondary="true"/>
<path d="M658,81.66H551.1a21.57,21.57,0,0,0-21.58,21.57v47.58a21.58,21.58,0,0,0,21.58,21.57h8.17c-2.36,11.22-10.65,19.1-10.65,19.1,15.46-2.71,26.69-11.76,33.51-19.1H658a21.57,21.57,0,0,0,21.57-21.57V103.23A21.57,21.57,0,0,0,658,81.66Z" fill="#1bbb9b" data-primary="true"/>
<rect x="556.13" y="100.07" width="100.27" height="8.87" fill="#fff"/>
<rect x="556.81" y="136.91" width="100.27" height="8.87" fill="#fff"/>
<rect x="556.13" y="118.49" width="50.48" height="8.87" fill="#fff"/>
<rect x="610.7" y="118.49" width="45.7" height="8.87" fill="#fff"/>
<path d="M301.6,360.56H243.51a11.71,11.71,0,0,0-11.71,11.72v25.84a11.72,11.72,0,0,0,11.71,11.72H248a22.31,22.31,0,0,1-5.79,10.37c8.4-1.46,14.49-6.38,18.2-10.37H301.6a11.72,11.72,0,0,0,11.71-11.72V372.28A11.71,11.71,0,0,0,301.6,360.56Z" fill="#3e3c3c" data-secondary="true"/>
<path d="M301.6,360.56H243.51a11.71,11.71,0,0,0-11.71,11.72v25.84a11.72,11.72,0,0,0,11.71,11.72H248a22.31,22.31,0,0,1-5.79,10.37c8.4-1.46,14.49-6.38,18.2-10.37H301.6a11.72,11.72,0,0,0,11.71-11.72V372.28A11.71,11.71,0,0,0,301.6,360.56Z" opacity="0.3"/>
<rect x="246.25" y="370.56" width="54.47" height="4.82" fill="#fff"/>
<rect x="246.62" y="390.57" width="54.47" height="4.82" fill="#fff"/>
<rect x="246.25" y="380.57" width="27.42" height="4.82" fill="#fff"/>
<rect x="275.89" y="380.57" width="24.83" height="4.82" fill="#fff"/>
<rect x="166.26" y="154.95" width="85.91" height="7.6" transform="translate(418.43 317.5) rotate(-180)" fill="#fff"/>
<rect x="165.67" y="186.51" width="85.91" height="7.6" transform="translate(417.26 380.62) rotate(-180)" fill="#fff"/>
<rect x="208.92" y="170.73" width="43.25" height="7.6" transform="translate(461.09 349.06) rotate(-180)" fill="#fff"/>
<rect x="166.26" y="170.73" width="39.16" height="7.6" transform="translate(371.67 349.06) rotate(-180)" fill="#fff"/>
<circle cx="579.79" cy="50.63" r="10.54" fill="#1bbb9b" data-primary="true"/>
<circle cx="579.79" cy="50.63" r="10.54" fill="#fff" opacity="0.5" style="isolation:isolate"/>
<path d="M576.3,47.61c.39,0,.75.42.79,1s-.26,1.07-.67,1.09-.75-.42-.79-1S575.89,47.63,576.3,47.61Z" fill="#3e3c3c" data-secondary="true"/>
<path d="M577.27,45c0,.15-.89.11-1.79.45s-1.63.9-1.73.79.44-.9,1.55-1.3S577.32,44.82,577.27,45Z" fill="#3e3c3c" data-secondary="true"/>
<path d="M584.91,49.25c-.12.09-.68-.52-1.59-.61s-1.59.37-1.68.26.07-.26.37-.47a2.2,2.2,0,0,1,1.37-.32,2.12,2.12,0,0,1,1.27.61C584.9,49,585,49.21,584.91,49.25Z" fill="#3e3c3c" data-secondary="true"/>
<path d="M585.82,47.49c-.08.13-.9-.31-2.08-.35s-2,.32-2.1.18a2.43,2.43,0,0,1,2.12-.71C585.07,46.66,585.91,47.39,585.82,47.49Z" fill="#3e3c3c" data-secondary="true"/>
<path d="M585.07,50.42a3.33,3.33,0,0,1-.66,2,5.34,5.34,0,0,1-7.32,1.84,5.41,5.41,0,0,1-1.67-1.56,3.26,3.26,0,0,1-.78-2,12.62,12.62,0,0,0,1.08,1.8,5.17,5.17,0,0,0,7.26.89,5.11,5.11,0,0,0,1.08-1.15A15.23,15.23,0,0,0,585.07,50.42Z" fill="#3e3c3c" data-secondary="true"/>
<path d="M229.77,299.61a14.82,14.82,0,1,1-14.37-15.27,14.8,14.8,0,0,1,14.37,15.27Z" fill="#1bbb9b" data-primary="true"/>
<path d="M229.77,299.61a14.82,14.82,0,1,1-14.37-15.27,14.8,14.8,0,0,1,14.37,15.27Z" fill="#fff" opacity="0.5" style="isolation:isolate"/>
<path d="M212,295.08a1.65,1.65,0,0,0-2.28-.33,2.84,2.84,0,0,0-1.23,2,2.89,2.89,0,0,0-1.18-2.08,1.68,1.68,0,0,0-2.31.19,2.27,2.27,0,0,0-.38,1.56,3.07,3.07,0,0,0,.51,1.53,11.79,11.79,0,0,0,3.3,2.83,10.68,10.68,0,0,0,3.26-2.64,3,3,0,0,0,.6-1.5A2.17,2.17,0,0,0,212,295.08Z" fill="#1bbb9b" data-primary="true"/>
<path d="M225.09,295.45a1.66,1.66,0,0,0-2.29-.33,2.86,2.86,0,0,0-1.23,2,2.86,2.86,0,0,0-1.18-2.09,1.68,1.68,0,0,0-2.31.2,2.25,2.25,0,0,0-.38,1.55,3,3,0,0,0,.52,1.54,11.75,11.75,0,0,0,3.29,2.83,11.11,11.11,0,0,0,3.26-2.64,3.07,3.07,0,0,0,.6-1.51A2.21,2.21,0,0,0,225.09,295.45Z" fill="#1bbb9b" data-primary="true"/>
<path d="M219.77,302.8a4.89,4.89,0,0,1-9.74-.44Z" fill="#fff"/>
</svg>